<svg width="64" height="64" viewBox="0 0 64 64" fill="none" xmlns="http://www.w3.org/2000/svg">
<rect width="64" height="64" rx="10" fill="white"/>
<path d="M19.75 19.75L32 25L44.25 19.75M25.35 35.5H38.65C40.6102 35.5 41.5903 35.5 42.339 35.1185C42.9975 34.783 43.533 34.2475 43.8685 33.589C44.25 32.8403 44.25 31.8602 44.25 29.9V20.1C44.25 18.1398 44.25 17.1597 43.8685 16.411C43.533 15.7525 42.9975 15.217 42.339 14.8815C41.5903 14.5 40.6102 14.5 38.65 14.5H25.35C23.3898 14.5 22.4097 14.5 21.661 14.8815C21.0025 15.217 20.467 15.7525 20.1315 16.411C19.75 17.1597 19.75 18.1398 19.75 20.1V29.9C19.75 31.8602 19.75 32.8403 20.1315 33.589C20.467 34.2475 21.0025 34.783 21.661 35.1185C22.4097 35.5 23.3898 35.5 25.35 35.5Z" stroke="#212124" stroke-width="2" stroke-linejoin="round"/>
<path d="M26.0839 48H25.2032C25.1511 47.7467 25.06 47.5241 24.9298 47.3324C24.8019 47.1406 24.6457 46.9796 24.461 46.8494C24.2787 46.7169 24.0763 46.6174 23.8538 46.5511C23.6312 46.4848 23.3992 46.4517 23.1578 46.4517C22.7174 46.4517 22.3185 46.563 21.961 46.7855C21.6059 47.008 21.323 47.3359 21.1123 47.7692C20.904 48.2024 20.7998 48.7339 20.7998 49.3636C20.7998 49.9934 20.904 50.5249 21.1123 50.9581C21.323 51.3913 21.6059 51.7192 21.961 51.9418C22.3185 52.1643 22.7174 52.2756 23.1578 52.2756C23.3992 52.2756 23.6312 52.2424 23.8538 52.1761C24.0763 52.1098 24.2787 52.0116 24.461 51.8814C24.6457 51.7488 24.8019 51.5866 24.9298 51.3949C25.06 51.2008 25.1511 50.9782 25.2032 50.7273H26.0839C26.0176 51.099 25.8969 51.4316 25.7217 51.7251C25.5465 52.0187 25.3287 52.2685 25.0683 52.4744C24.8079 52.678 24.5155 52.8331 24.1911 52.9396C23.8692 53.0462 23.5247 53.0994 23.1578 53.0994C22.5375 53.0994 21.9859 52.9479 21.5029 52.6449C21.02 52.3419 20.64 51.911 20.363 51.3523C20.086 50.7936 19.9475 50.1307 19.9475 49.3636C19.9475 48.5966 20.086 47.9337 20.363 47.375C20.64 46.8163 21.02 46.3854 21.5029 46.0824C21.9859 45.7794 22.5375 45.6278 23.1578 45.6278C23.5247 45.6278 23.8692 45.6811 24.1911 45.7876C24.5155 45.8942 24.8079 46.0504 25.0683 46.2564C25.3287 46.46 25.5465 46.7086 25.7217 47.0021C25.8969 47.2933 26.0176 47.6259 26.0839 48ZM27.9114 49.7188V53H27.0734V45.7273H27.9114V48.3977H27.9825C28.1103 48.116 28.3021 47.8923 28.5577 47.7266C28.8158 47.5585 29.1591 47.4744 29.5876 47.4744C29.9593 47.4744 30.2848 47.549 30.5641 47.6982C30.8435 47.8449 31.0601 48.071 31.214 48.3764C31.3702 48.6795 31.4484 49.0653 31.4484 49.5341V53H30.6103V49.5909C30.6103 49.1577 30.4979 48.8227 30.2729 48.5859C30.0504 48.3468 29.7415 48.2273 29.3461 48.2273C29.0715 48.2273 28.8253 48.2853 28.6075 48.4013C28.392 48.5173 28.2216 48.6866 28.0961 48.9091C27.973 49.1316 27.9114 49.4015 27.9114 49.7188ZM34.2667 53.1278C33.921 53.1278 33.6074 53.0627 33.3256 52.9325C33.0439 52.8 32.8202 52.6094 32.6545 52.3608C32.4888 52.1098 32.4059 51.8068 32.4059 51.4517C32.4059 51.1392 32.4674 50.8859 32.5906 50.6918C32.7137 50.4953 32.8782 50.3414 33.0842 50.2301C33.2901 50.1188 33.5174 50.036 33.766 49.9815C34.0169 49.9247 34.2691 49.8797 34.5224 49.8466C34.8538 49.804 35.1225 49.772 35.3285 49.7507C35.5368 49.727 35.6883 49.688 35.783 49.6335C35.8801 49.5791 35.9286 49.4844 35.9286 49.3494V49.321C35.9286 48.9706 35.8327 48.6984 35.641 48.5043C35.4516 48.3101 35.1639 48.2131 34.7781 48.2131C34.378 48.2131 34.0643 48.3007 33.837 48.4759C33.6097 48.651 33.4499 48.8381 33.3576 49.0369L32.5621 48.7528C32.7042 48.4214 32.8936 48.1634 33.1303 47.9787C33.3694 47.7917 33.6299 47.6615 33.9116 47.5881C34.1957 47.5123 34.475 47.4744 34.7496 47.4744C34.9248 47.4744 35.1261 47.4957 35.3533 47.5384C35.583 47.5786 35.8043 47.6626 36.0174 47.7905C36.2328 47.9183 36.4116 48.1113 36.5536 48.3693C36.6957 48.6274 36.7667 48.973 36.7667 49.4062V53H35.9286V52.2614H35.886C35.8292 52.3797 35.7345 52.5064 35.6019 52.6413C35.4693 52.7763 35.293 52.8911 35.0728 52.9858C34.8526 53.0805 34.5839 53.1278 34.2667 53.1278ZM34.3945 52.375C34.726 52.375 35.0053 52.3099 35.2326 52.1797C35.4622 52.0495 35.6351 51.8814 35.7511 51.6754C35.8694 51.4695 35.9286 51.2528 35.9286 51.0256V50.2585C35.8931 50.3011 35.815 50.3402 35.6942 50.3757C35.5759 50.4089 35.4386 50.4384 35.2823 50.4645C35.1284 50.4882 34.9781 50.5095 34.8313 50.5284C34.6869 50.545 34.5697 50.5592 34.4798 50.571C34.262 50.5994 34.0584 50.6456 33.869 50.7095C33.6819 50.7711 33.5304 50.8646 33.4144 50.9901C33.3008 51.1132 33.244 51.2812 33.244 51.4943C33.244 51.7855 33.3517 52.0057 33.5671 52.1548C33.7849 52.3016 34.0607 52.375 34.3945 52.375ZM40.3485 47.5455V48.2557H37.5218V47.5455H40.3485ZM38.3457 46.2386H39.1837V51.4375C39.1837 51.6742 39.2181 51.8518 39.2867 51.9702C39.3577 52.0862 39.4477 52.1643 39.5566 52.2045C39.6679 52.2424 39.7851 52.2614 39.9082 52.2614C40.0005 52.2614 40.0762 52.2566 40.1354 52.2472C40.1946 52.2353 40.242 52.2259 40.2775 52.2188L40.4479 52.9716C40.3911 52.9929 40.3118 53.0142 40.21 53.0355C40.1082 53.0592 39.9792 53.071 39.8229 53.071C39.5862 53.071 39.3542 53.0201 39.1269 52.9183C38.902 52.8165 38.715 52.6615 38.5658 52.4531C38.4191 52.2448 38.3457 51.982 38.3457 51.6648V46.2386ZM45.0551 48.767L44.3023 48.9801C44.2549 48.8546 44.1851 48.7327 44.0928 48.6143C44.0028 48.4936 43.8797 48.3942 43.7235 48.3161C43.5672 48.2379 43.3672 48.1989 43.1233 48.1989C42.7895 48.1989 42.5113 48.2758 42.2888 48.4297C42.0686 48.5812 41.9585 48.7741 41.9585 49.0085C41.9585 49.2169 42.0343 49.3814 42.1858 49.5021C42.3373 49.6229 42.5741 49.7235 42.896 49.804L43.7057 50.0028C44.1934 50.1212 44.5568 50.3023 44.7959 50.5462C45.035 50.7876 45.1546 51.099 45.1546 51.4801C45.1546 51.7926 45.0646 52.072 44.8847 52.3182C44.7071 52.5644 44.4585 52.7585 44.1389 52.9006C43.8193 53.0426 43.4477 53.1136 43.0239 53.1136C42.4675 53.1136 42.0071 52.9929 41.6425 52.7514C41.2779 52.5099 41.0471 52.1572 40.95 51.6932L41.7455 51.4943C41.8212 51.7879 41.9645 52.008 42.1752 52.1548C42.3882 52.3016 42.6664 52.375 43.0097 52.375C43.4003 52.375 43.7104 52.2921 43.9401 52.1264C44.1721 51.9583 44.2881 51.7571 44.2881 51.5227C44.2881 51.3333 44.2218 51.1747 44.0892 51.0469C43.9567 50.9167 43.7531 50.8196 43.4784 50.7557L42.5693 50.5426C42.0698 50.4242 41.7029 50.2408 41.4685 49.9922C41.2365 49.7412 41.1205 49.4276 41.1205 49.0511C41.1205 48.7434 41.2069 48.4711 41.3797 48.2344C41.5549 47.9976 41.7928 47.8118 42.0935 47.6768C42.3965 47.5419 42.7398 47.4744 43.1233 47.4744C43.6631 47.4744 44.0869 47.5928 44.3946 47.8295C44.7048 48.0663 44.9249 48.3788 45.0551 48.767Z" fill="#212124"/>
</svg>
