<svg width="64" height="64" viewBox="0 0 64 64" fill="none" xmlns="http://www.w3.org/2000/svg">
<rect width="64" height="64" rx="10" fill="white"/>
<path d="M23.25 20.75V32C23.25 33.933 24.817 35.5 26.75 35.5H37.25C39.183 35.5 40.75 33.933 40.75 32V20.75M23.25 20.75L19.75 23.25M23.25 20.75L32 14.5L40.75 20.75M40.75 20.75L44.25 23.25" stroke="#212124" stroke-width="2" stroke-linecap="round" stroke-linejoin="round"/>
<path d="M19.9203 53V45.7273H20.8009V48.9659H24.6788V45.7273H25.5595V53H24.6788V49.7472H20.8009V53H19.9203ZM29.1049 53.1136C28.6124 53.1136 28.1804 52.9964 27.8087 52.7621C27.4394 52.5277 27.1506 52.1998 26.9422 51.7784C26.7363 51.357 26.6333 50.8646 26.6333 50.3011C26.6333 49.733 26.7363 49.237 26.9422 48.8132C27.1506 48.3894 27.4394 48.0604 27.8087 47.826C28.1804 47.5916 28.6124 47.4744 29.1049 47.4744C29.5973 47.4744 30.0282 47.5916 30.3975 47.826C30.7692 48.0604 31.058 48.3894 31.264 48.8132C31.4723 49.237 31.5765 49.733 31.5765 50.3011C31.5765 50.8646 31.4723 51.357 31.264 51.7784C31.058 52.1998 30.7692 52.5277 30.3975 52.7621C30.0282 52.9964 29.5973 53.1136 29.1049 53.1136ZM29.1049 52.3608C29.4789 52.3608 29.7867 52.2649 30.0282 52.0732C30.2696 51.8814 30.4484 51.6293 30.5644 51.3168C30.6804 51.0043 30.7384 50.6657 30.7384 50.3011C30.7384 49.9366 30.6804 49.5968 30.5644 49.282C30.4484 48.9671 30.2696 48.7126 30.0282 48.5185C29.7867 48.3243 29.4789 48.2273 29.1049 48.2273C28.7308 48.2273 28.423 48.3243 28.1816 48.5185C27.9401 48.7126 27.7614 48.9671 27.6454 49.282C27.5293 49.5968 27.4713 49.9366 27.4713 50.3011C27.4713 50.6657 27.5293 51.0043 27.6454 51.3168C27.7614 51.6293 27.9401 51.8814 28.1816 52.0732C28.423 52.2649 28.7308 52.3608 29.1049 52.3608ZM32.5358 53V47.5455H33.3454V48.3977H33.4164C33.5301 48.1065 33.7135 47.8804 33.9669 47.7195C34.2202 47.5561 34.5244 47.4744 34.8795 47.4744C35.2394 47.4744 35.5388 47.5561 35.7779 47.7195C36.0194 47.8804 36.2076 48.1065 36.3426 48.3977H36.3994C36.5391 48.116 36.7486 47.8923 37.0279 47.7266C37.3073 47.5585 37.6423 47.4744 38.0329 47.4744C38.5206 47.4744 38.9195 47.6271 39.2296 47.9325C39.5398 48.2356 39.6948 48.7079 39.6948 49.3494V53H38.8568V49.3494C38.8568 48.947 38.7467 48.6593 38.5265 48.4865C38.3064 48.3137 38.0471 48.2273 37.7488 48.2273C37.3653 48.2273 37.0682 48.3433 36.8575 48.5753C36.6468 48.8049 36.5414 49.0961 36.5414 49.4489V53H35.6892V49.2642C35.6892 48.9541 35.5885 48.7043 35.3873 48.5149C35.1861 48.3232 34.9269 48.2273 34.6096 48.2273C34.3918 48.2273 34.1882 48.2853 33.9988 48.4013C33.8118 48.5173 33.6603 48.6783 33.5443 48.8842C33.4306 49.0878 33.3738 49.3234 33.3738 49.5909V53H32.5358ZM43.1941 53.1136C42.6685 53.1136 42.2152 52.9976 41.834 52.7656C41.4552 52.5312 41.1628 52.2045 40.9569 51.7855C40.7533 51.3641 40.6515 50.8741 40.6515 50.3153C40.6515 49.7566 40.7533 49.2642 40.9569 48.8381C41.1628 48.4096 41.4493 48.0758 41.8163 47.8366C42.1856 47.5952 42.6164 47.4744 43.1089 47.4744C43.393 47.4744 43.6735 47.5218 43.9505 47.6165C44.2275 47.7112 44.4796 47.8651 44.7069 48.0781C44.9342 48.2888 45.1153 48.5682 45.2502 48.9162C45.3851 49.2642 45.4526 49.6927 45.4526 50.2017V50.5568H41.2481V49.8324H44.6003C44.6003 49.5246 44.5388 49.25 44.4157 49.0085C44.2949 48.767 44.1221 48.5765 43.8972 48.4368C43.6747 48.2971 43.4119 48.2273 43.1089 48.2273C42.7751 48.2273 42.4862 48.3101 42.2424 48.4759C42.0009 48.6392 41.8151 48.8523 41.6849 49.1151C41.5547 49.3778 41.4895 49.6596 41.4895 49.9602V50.4432C41.4895 50.8551 41.5606 51.2043 41.7026 51.4908C41.847 51.7749 42.0471 51.9915 42.3028 52.1406C42.5584 52.2874 42.8556 52.3608 43.1941 52.3608C43.4143 52.3608 43.6131 52.33 43.7907 52.2685C43.9706 52.2045 44.1257 52.1098 44.2559 51.9844C44.3861 51.8565 44.4867 51.6979 44.5577 51.5085L45.3674 51.7358C45.2822 52.0104 45.1389 52.2519 44.9377 52.4602C44.7365 52.6662 44.4879 52.8272 44.192 52.9432C43.896 53.0568 43.5634 53.1136 43.1941 53.1136Z" fill="#212124"/>
</svg>
