<svg width="64" height="64" viewBox="0 0 64 64" fill="none" xmlns="http://www.w3.org/2000/svg">
<rect width="64" height="64" rx="10" fill="white"/>
<path d="M19.3212 53V45.7273H21.7785C22.3491 45.7273 22.8155 45.8303 23.1777 46.0362C23.5423 46.2398 23.8122 46.5156 23.9873 46.8636C24.1625 47.2116 24.2501 47.5999 24.2501 48.0284C24.2501 48.4569 24.1625 48.8464 23.9873 49.1967C23.8145 49.5471 23.547 49.8265 23.1848 50.0348C22.8226 50.2408 22.3586 50.3438 21.7927 50.3438H20.0314V49.5625H21.7643C22.155 49.5625 22.4686 49.495 22.7054 49.3601C22.9421 49.2251 23.1138 49.0429 23.2203 48.8132C23.3292 48.5812 23.3837 48.3196 23.3837 48.0284C23.3837 47.7372 23.3292 47.4768 23.2203 47.2472C23.1138 47.0175 22.9409 46.8376 22.7018 46.7074C22.4627 46.5748 22.1455 46.5085 21.7501 46.5085H20.2018V53H19.3212ZM25.2352 53V47.5455H26.0448V48.3693H26.1016C26.2011 48.0994 26.381 47.8804 26.6414 47.7124C26.9018 47.5443 27.1954 47.4602 27.5221 47.4602C27.5837 47.4602 27.6606 47.4614 27.7529 47.4638C27.8453 47.4661 27.9151 47.4697 27.9624 47.4744V48.3267C27.934 48.3196 27.8689 48.3089 27.7671 48.2947C27.6677 48.2782 27.5623 48.2699 27.4511 48.2699C27.1859 48.2699 26.9492 48.3255 26.7409 48.4368C26.5349 48.5457 26.3715 48.6972 26.2508 48.8913C26.1324 49.0831 26.0732 49.3021 26.0732 49.5483V53H25.2352ZM30.6858 53.1136C30.1933 53.1136 29.7613 52.9964 29.3896 52.7621C29.0203 52.5277 28.7315 52.1998 28.5231 51.7784C28.3172 51.357 28.2142 50.8646 28.2142 50.3011C28.2142 49.733 28.3172 49.237 28.5231 48.8132C28.7315 48.3894 29.0203 48.0604 29.3896 47.826C29.7613 47.5916 30.1933 47.4744 30.6858 47.4744C31.1782 47.4744 31.6091 47.5916 31.9784 47.826C32.3501 48.0604 32.6389 48.3894 32.8449 48.8132C33.0532 49.237 33.1574 49.733 33.1574 50.3011C33.1574 50.8646 33.0532 51.357 32.8449 51.7784C32.6389 52.1998 32.3501 52.5277 31.9784 52.7621C31.6091 52.9964 31.1782 53.1136 30.6858 53.1136ZM30.6858 52.3608C31.0598 52.3608 31.3676 52.2649 31.6091 52.0732C31.8505 51.8814 32.0293 51.6293 32.1453 51.3168C32.2613 51.0043 32.3193 50.6657 32.3193 50.3011C32.3193 49.9366 32.2613 49.5968 32.1453 49.282C32.0293 48.9671 31.8505 48.7126 31.6091 48.5185C31.3676 48.3243 31.0598 48.2273 30.6858 48.2273C30.3117 48.2273 30.0039 48.3243 29.7625 48.5185C29.521 48.7126 29.3423 48.9671 29.2262 49.282C29.1102 49.5968 29.0522 49.9366 29.0522 50.3011C29.0522 50.6657 29.1102 51.0043 29.2262 51.3168C29.3423 51.6293 29.521 51.8814 29.7625 52.0732C30.0039 52.2649 30.3117 52.3608 30.6858 52.3608ZM36.5456 47.5455V48.2557H33.6053V47.5455H36.5456ZM34.486 53V46.7926C34.486 46.4801 34.5594 46.2197 34.7061 46.0114C34.8529 45.803 35.0435 45.6468 35.2779 45.5426C35.5123 45.4384 35.7596 45.3864 36.0201 45.3864C36.226 45.3864 36.3941 45.4029 36.5243 45.4361C36.6545 45.4692 36.7516 45.5 36.8155 45.5284L36.574 46.2528C36.5314 46.2386 36.4722 46.2209 36.3965 46.1996C36.3231 46.1783 36.226 46.1676 36.1053 46.1676C35.8283 46.1676 35.6283 46.2375 35.5051 46.3771C35.3844 46.5168 35.324 46.7216 35.324 46.9915V53H34.486ZM37.4002 53V47.5455H38.2382V53H37.4002ZM37.8263 46.6364C37.663 46.6364 37.5221 46.5807 37.4037 46.4695C37.2877 46.3582 37.2297 46.2244 37.2297 46.0682C37.2297 45.9119 37.2877 45.7782 37.4037 45.6669C37.5221 45.5556 37.663 45.5 37.8263 45.5C37.9897 45.5 38.1293 45.5556 38.2453 45.6669C38.3637 45.7782 38.4229 45.9119 38.4229 46.0682C38.4229 46.2244 38.3637 46.3582 38.2453 46.4695C38.1293 46.5807 37.9897 46.6364 37.8263 46.6364ZM40.2913 45.7273V53H39.4532V45.7273H40.2913ZM43.7932 53.1136C43.2676 53.1136 42.8143 52.9976 42.4331 52.7656C42.0543 52.5312 41.7619 52.2045 41.556 51.7855C41.3524 51.3641 41.2506 50.8741 41.2506 50.3153C41.2506 49.7566 41.3524 49.2642 41.556 48.8381C41.7619 48.4096 42.0484 48.0758 42.4154 47.8366C42.7847 47.5952 43.2155 47.4744 43.708 47.4744C43.9921 47.4744 44.2726 47.5218 44.5496 47.6165C44.8266 47.7112 45.0787 47.8651 45.306 48.0781C45.5333 48.2888 45.7144 48.5682 45.8493 48.9162C45.9842 49.2642 46.0517 49.6927 46.0517 50.2017V50.5568H41.8472V49.8324H45.1994C45.1994 49.5246 45.1379 49.25 45.0148 49.0085C44.894 48.767 44.7212 48.5765 44.4963 48.4368C44.2738 48.2971 44.011 48.2273 43.708 48.2273C43.3742 48.2273 43.0853 48.3101 42.8415 48.4759C42.6 48.6392 42.4142 48.8523 42.284 49.1151C42.1538 49.3778 42.0887 49.6596 42.0887 49.9602V50.4432C42.0887 50.8551 42.1597 51.2043 42.3017 51.4908C42.4461 51.7749 42.6462 51.9915 42.9019 52.1406C43.1575 52.2874 43.4547 52.3608 43.7932 52.3608C44.0134 52.3608 44.2122 52.33 44.3898 52.2685C44.5697 52.2045 44.7248 52.1098 44.855 51.9844C44.9852 51.8565 45.0858 51.6979 45.1568 51.5085L45.9665 51.7358C45.8813 52.0104 45.738 52.2519 45.5368 52.4602C45.3356 52.6662 45.087 52.8272 44.7911 52.9432C44.4951 53.0568 44.1625 53.1136 43.7932 53.1136Z" fill="#212124"/>
<path d="M21.5 37.25V33.75C21.5 30.8505 23.8505 28.5 26.75 28.5H37.25C40.1495 28.5 42.5 30.8505 42.5 33.75V37.25M32 12.75C29.3259 12.75 26.75 14.8331 26.75 18C26.75 20.6741 28.8331 23.25 32 23.25C35.1669 23.25 37.25 20.6741 37.25 18C37.25 14.8331 34.6741 12.75 32 12.75Z" stroke="#212124" stroke-width="2" stroke-linecap="round" stroke-linejoin="round"/>
</svg>
